<svg width="164" height="164" viewBox="0 0 164 164" fill="none" xmlns="http://www.w3.org/2000/svg">
<path d="M27.4534 148.625C23.9758 148.625 21.5603 145.163 22.7607 141.899L68.0882 18.6492C68.8116 16.6821 70.6851 15.375 72.7809 15.375H91.217C93.3129 15.375 95.1863 16.6821 95.9097 18.6491L141.24 141.899C142.441 145.163 140.025 148.625 136.548 148.625H118.267C116.119 148.625 114.212 147.254 113.527 145.218L106.74 125.023C106.055 122.988 104.148 121.616 102 121.616H61.9982C59.8504 121.616 57.9426 122.988 57.2585 125.024L50.4737 145.217C49.7896 147.253 47.8818 148.625 45.734 148.625H27.4534Z" fill="url(#paint0_linear_3364_210271)" stroke="black" stroke-width="10" stroke-linecap="round" stroke-linejoin="round"/>
<g clip-path="url(#clip0_3364_210271)">
<path fill-rule="evenodd" clip-rule="evenodd" d="M85.0791 50.3991C86.6591 48.5041 89.7366 49.7991 89.4866 52.2541L87.7216 69.4991H101.999C102.474 69.4992 102.939 69.6347 103.34 69.8897C103.741 70.1447 104.061 70.5086 104.262 70.9388C104.464 71.369 104.538 71.8477 104.478 72.3188C104.417 72.79 104.223 73.234 103.919 73.5991L78.9191 103.599C77.3391 105.494 74.2616 104.199 74.5116 101.744L76.2766 84.4991H61.9991C61.524 84.4989 61.0589 84.3634 60.6581 84.1084C60.2573 83.8534 59.9374 83.4895 59.736 83.0593C59.5345 82.6291 59.4598 82.1504 59.5205 81.6793C59.5813 81.2081 59.775 80.7641 60.0791 80.3991L85.0791 50.3991Z" fill="black"/>
</g>
<defs>
<linearGradient id="paint0_linear_3364_210271" x1="82.0007" y1="15.375" x2="82.0007" y2="148.625" gradientUnits="userSpaceOnUse">
<stop stop-color="#495ADE"/>
<stop offset="1" stop-color="#021E9B"/>
</linearGradient>
<clipPath id="clip0_3364_210271">
<rect width="60" height="60" fill="white" transform="translate(52 47)"/>
</clipPath>
</defs>
</svg>
